<?xml version="1.0" encoding="utf-8"?>
<!DOCTYPE svg PUBLIC "-//W3C//DTD SVG 20010904//EN" "http://www.w3.org/TR/2001/REC-SVG-20010904/DTD/svg10.dtd">
<svg version="1.0" xmlns="http://www.w3.org/2000/svg" width="2654px" height="2479px" viewBox="0 0 2654 2479" preserveAspectRatio="xMidYMid meet">
 <g fill="#01afef">
  <path d="M746.6 2476.9 c-5.5 -0.5 -15.2 -2.1 -21.5 -3.5 -52.1 -11.6 -82.3 -44.2 -89.2 -96 -1.8 -13.4 -0.7 -44.3 2 -57.8 13.4 -66.3 58.4 -113.7 122.1 -128.5 14 -3.3 29.5 -4.4 50.9 -3.8 38 1.2 62.8 8.5 85.4 25 14.1 10.3 26.8 26.9 33.6 43.9 14.7 36.6 10.8 90 -9.5 132.8 -8.5 17.7 -17 29.7 -30.8 43.6 -23 23 -49.8 36.8 -82.5 42.5 -13.6 2.4 -44.9 3.3 -60.5 1.8z m45.1 -51.9 c15.3 -3.7 29.6 -12.3 42.3 -25.6 15.8 -16.6 25.7 -36.1 31.2 -61.7 1.7 -7.9 2.2 -13.7 2.2 -26.2 0.1 -19.1 -1.5 -27.7 -7.6 -40.5 -7.3 -15.2 -21.5 -26.7 -38.3 -31 -14.8 -3.8 -36.6 -2.2 -51 3.6 -35.7 14.5 -59.7 51.6 -64.5 99.8 -4.1 41.4 14.2 72.9 47.4 81.6 10 2.6 27.4 2.6 38.3 0z"/>
  <path d="M2483 2476.9 c-36.9 -3 -66.8 -15.4 -82.1 -34.3 -11.4 -14 -18.9 -37.3 -18.9 -58.3 l0 -4.3 33.4 0 33.3 0 0.6 7.8 c2.2 28.2 23.5 43.2 61.4 43.2 13.4 0 23.8 -2.1 34.1 -7 9.2 -4.4 16.6 -11 20.3 -18.1 3.3 -6.6 3.9 -18.3 1 -24.1 -5.9 -12.3 -19.2 -19 -58.1 -29.4 -11.3 -3 -25.9 -7.3 -32.5 -9.5 -40.2 -13.6 -58.3 -33.3 -60.2 -65.4 -2.7 -48.7 34.1 -82.3 98.2 -89.5 19.1 -2.1 46.9 -1 65 2.6 34.1 6.9 59.4 26.3 69.1 53 2.7 7.3 5.4 21.4 5.4 28 l0 4.4 -33.4 0 -33.4 0 -0.7 -6.5 c-2.5 -22.6 -21.4 -35.5 -52.1 -35.5 -30.5 0 -50.6 13.5 -50.8 34 0 5.5 0.5 7.4 2.7 11.3 6.8 11.6 24.8 20.1 56.2 26.7 36.7 7.7 57.2 15.5 71.6 27.4 16.9 13.9 24.7 36.1 22 62.5 -3.1 29.5 -19.6 51.9 -49.6 66.9 -24.8 12.4 -61.2 17.4 -102.5 14.1z"/>
  <path d="M102.4 2470.3 c0.3 -1 4.2 -17.8 8.6 -37.3 11 -48 16.8 -73.5 30.4 -133.2 6.4 -27.9 11.6 -51.2 11.6 -51.8 0 -2.6 -16.3 -15.2 -30.5 -23.5 -23.7 -13.9 -57.7 -25 -87 -28.3 -5.4 -0.7 13.9 -1 60.5 -1.1 44.5 -0.1 69 -0.5 69.6 -1.1 0.7 -0.7 36 -0.9 104.1 -0.8 l103 0.3 -4.7 20.5 c-2.6 11.3 -5.1 22.5 -5.6 25 l-0.9 4.5 -68.4 0.5 -68.4 0.5 -7.3 32 c-4.1 17.6 -7.4 32.2 -7.4 32.5 0 0.3 28.5 0.4 63.2 0.3 34.8 -0.2 63.9 0.1 64.7 0.6 1.4 0.9 1 2.7 -7 37.4 l-2.1 8.7 -64.3 0 c-37.8 0 -64.6 0.4 -64.9 0.9 -0.6 0.9 -23.3 97.9 -25.8 109.9 l-1.1 5.2 -35.4 0 c-33.3 0 -35.4 -0.1 -34.9 -1.7z"/>
  <path d="M333 2470.9 c0 -0.6 5.9 -27 13.1 -58.7 21.9 -96.9 30.7 -135.5 37.1 -163.7 3.3 -14.8 7.5 -33.3 9.2 -41 l3.2 -14 83.5 0 c87.6 0 91.3 0.2 107.8 4.6 23.8 6.4 40.1 22.6 45.8 45.4 2.4 10 2.4 32.6 -0.1 41.5 -4.1 14.8 -13.8 29.4 -25.3 38.3 -11.3 8.7 -24.9 14.8 -36.5 16.5 -2.9 0.4 -5.2 1.1 -5.1 1.6 0.1 0.5 2.3 1.8 4.9 2.7 5.9 2.3 13.1 7.2 16.3 11.1 3.5 4.3 7.1 13.9 8.8 23.2 1.3 6.9 1.3 11.4 0.2 31.1 -1.4 26.5 -0.8 50.7 1.4 57.8 l1.5 4.7 -34.6 -0.2 -34.6 -0.3 -1.3 -6 c-1.7 -8.3 -1.6 -22.5 0.3 -40.1 2.1 -20.1 1.6 -38.2 -1.3 -44.6 -2.9 -6.3 -9.3 -12.2 -16.1 -15 -5.5 -2.2 -6.9 -2.3 -44.4 -2.6 -36.6 -0.3 -38.7 -0.2 -39.2 1.5 -0.3 1 -5.7 24.5 -12.1 52.2 -6.4 27.8 -11.8 51.5 -12.1 52.8 l-0.6 2.3 -34.9 0 c-24.3 0 -34.9 -0.3 -34.9 -1.1z m158.5 -152.2 c24.4 -0.3 27.7 -0.6 34.5 -2.6 16.8 -5 29.4 -14 34.7 -24.9 2.5 -5.2 2.8 -6.7 2.8 -16.7 0 -10 -0.2 -11.5 -2.7 -16.1 -3 -5.7 -8.4 -10.9 -13.7 -13.2 -9.5 -4 -13.7 -4.4 -52.3 -4.9 l-37.8 -0.5 -1 2.4 c-0.5 1.2 -4.6 18.1 -8.9 37.3 -4.4 19.3 -8.2 36.1 -8.6 37.5 l-0.6 2.5 13.3 -0.2 c7.3 -0.2 25.5 -0.4 40.3 -0.6z"/>
  <path d="M927 2471 c0 -0.6 2.4 -11.7 5.4 -24.8 3 -13 8.9 -38.5 13 -56.7 4.1 -18.1 15.2 -66.7 24.6 -108 9.4 -41.2 17.8 -78 18.7 -81.8 l1.5 -6.7 36.6 0.2 36.5 0.3 31.1 75 c17.1 41.3 35 84.3 39.6 95.7 4.7 11.4 8.8 20.8 9.1 20.8 0.3 0 2 -6.6 3.7 -14.7 1.7 -8.2 11 -51 20.7 -95.2 9.6 -44.2 17.5 -80.8 17.5 -81.2 0 -0.5 14.8 -0.9 32.9 -0.9 l32.9 0 -1.4 5.8 c-0.8 3.1 -7 30 -13.8 59.7 -6.8 29.7 -20.6 89.9 -30.7 133.8 l-18.3 79.7 -35.5 -0.2 -35.5 -0.3 -8.6 -20 c-4.7 -11 -22.7 -53.4 -40 -94.3 -17.3 -40.8 -31.7 -74.2 -32 -74.2 -0.3 0 -2.5 8.7 -4.8 19.3 -2.3 10.5 -11.7 53.1 -20.9 94.5 l-16.6 75.2 -32.9 0 c-21.5 0 -32.8 -0.3 -32.8 -1z"/>
  <path d="M1288.1 2468.3 c12.8 -56.8 50.1 -220.1 50.5 -221.9 l0.6 -2.4 -42.7 0 c-40.1 0 -42.6 -0.1 -42.1 -1.7 0.3 -1 2.8 -11.7 5.6 -23.8 2.8 -12.1 5.3 -22.8 5.6 -23.7 0.5 -1.7 7.1 -1.8 120 -1.8 72.1 0 119.4 0.4 119.4 0.9 0 0.8 -2.2 10.6 -5 22.6 -0.5 2.2 -2.1 9.3 -3.6 15.8 l-2.6 11.7 -41.9 0 c-23 0 -41.9 0.4 -41.9 0.8 0 0.4 -9 40.3 -20 88.7 -11 48.4 -22.6 99.4 -25.8 113.3 l-5.7 25.2 -35.6 0 -35.7 0 0.9 -3.7z"/>
  <path d="M1458.3 2469.8 c0.3 -1.3 10.7 -47.1 23.1 -101.8 12.4 -54.7 26.1 -115.5 30.5 -135 4.5 -19.5 8.3 -36.5 8.6 -37.7 l0.5 -2.3 117.5 0 c78 0 117.5 0.3 117.5 1 0 1.1 -9.7 45.4 -10.6 48.3 -0.5 1.6 -5.3 1.7 -82.8 1.7 l-82.2 0 -6.7 29.8 c-3.7 16.3 -6.7 30 -6.7 30.5 0 0.4 34.2 0.7 76.1 0.7 71.9 0 76 0.1 75.5 1.8 -0.3 0.9 -2.6 10.7 -5.1 21.7 -2.5 11 -4.8 20.8 -5.1 21.7 -0.5 1.7 -5.3 1.8 -76.7 2 l-76.1 0.3 -7.2 31.5 c-4 17.3 -7.6 32.7 -7.9 34.3 l-0.7 2.7 83.6 0 c46 0 83.6 0.3 83.5 0.8 0 0.4 -2.6 11.7 -5.7 25.2 l-5.8 24.5 -118.8 0.3 -118.8 0.2 0.5 -2.2z"/>
  <path d="M1720 2471.1 c0 -0.8 12.3 -54.9 47.5 -209.3 8.5 -37.2 15.5 -67.9 15.5 -68.2 0 -0.3 16 -0.6 35.5 -0.6 22.9 0 35.5 0.4 35.5 1 0 1.2 -62.8 274.9 -63.5 276.8 -0.3 0.9 -8.4 1.2 -35.5 1.2 -19.2 0 -35 -0.4 -35 -0.9z"/>
  <path d="M1824.4 2470.3 c0.3 -1 3.9 -17.1 8.1 -35.8 4.2 -18.7 11.6 -51.5 16.5 -73 4.9 -21.4 15.2 -67.1 23 -101.5 7.8 -34.4 14.4 -63.5 14.7 -64.7 l0.5 -2.3 76.2 0 c41.8 0 82 0.5 89.2 1 15.9 1.2 30.3 4.7 40.4 9.7 9.9 4.9 21.3 16.1 25.8 25.4 5.6 11.6 6.7 17.5 6.7 35.9 0 15.3 -0.2 17 -2.7 24.1 -5 14.3 -14.9 27.6 -26.8 36.4 -9.5 7 -28.3 14.5 -36.2 14.5 -4.4 0 -3.3 2.4 1.7 3.9 6.3 1.8 14.4 7.8 18.1 13.2 1.7 2.6 4.1 7.9 5.5 12 2.1 6.6 2.4 9.1 2.4 23.9 0 9.1 -0.4 25.5 -0.8 36.5 -0.5 11.2 -0.5 21.7 0 23.9 l0.9 3.9 83.3 -130.4 c45.9 -71.7 84.1 -131.2 84.9 -132.2 1.4 -1.6 4.2 -1.7 37.5 -1.5 l36.1 0.3 12.7 70.5 c7 38.8 18.2 100.7 24.9 137.5 6.6 36.9 12.3 67.8 12.6 68.8 0.5 1.6 -1.6 1.7 -35 1.7 -25.1 0 -35.6 -0.3 -35.6 -1.1 0 -1.8 -9 -59.3 -9.5 -60.6 -0.3 -1 -12.1 -1.3 -54.4 -1.3 l-54 0 -19.3 31.5 -19.3 31.5 -65.7 0 -65.6 0 -1 -4.7 c-2 -9.4 -2.3 -16 -1.3 -28.3 0.5 -6.9 1.5 -19.1 2.2 -27.3 1.3 -15.7 0.4 -25.8 -2.6 -31.8 -4.2 -8 -12.1 -13.6 -22.3 -15.8 -3.4 -0.7 -18.4 -1.1 -41.1 -1.1 l-35.7 0 -12.5 54.3 -12.4 54.2 -35.3 0.3 c-33.4 0.2 -35.3 0.1 -34.8 -1.5z m469.1 -107.5 c-0.2 -1.3 -3.4 -25 -7.1 -52.8 -3.7 -27.8 -6.8 -50.7 -7 -50.9 -0.2 -0.2 -0.5 -0.2 -0.7 0 -1.1 1.3 -61.7 105 -61.7 105.4 0 0.3 17.3 0.5 38.5 0.5 l38.5 0 -0.5 -2.2z m-275 -47.2 c4.9 -1.5 11.6 -4.2 14.9 -5.9 7.3 -3.9 15.5 -11.8 18.4 -17.9 8.3 -17.1 2.8 -38.3 -11.9 -45.8 -9.4 -4.9 -13.2 -5.3 -53.2 -5.7 -20.9 -0.3 -38.3 -0.1 -38.7 0.3 -0.8 0.8 -18 75.3 -18 77.8 0 0.8 10.9 0.9 39.7 0.6 l39.8 -0.6 9 -2.8z"/>
  <path d="M1259.5 2133.4 c-57.5 -5.6 -87.4 -23.8 -99.3 -60.4 -2.8 -8.6 -5.2 -22.7 -5.2 -30.6 l0 -6.4 33.5 0 33.5 0 0 5 c0 17.2 9.3 32 24.5 39.1 14.7 6.9 40.9 9.2 57 5 16.7 -4.4 29.4 -13.1 34.5 -23.7 1.5 -3 2.5 -7.2 2.8 -11.8 0.3 -6.4 0.1 -7.7 -2.5 -12.6 -3.3 -6.3 -9.5 -11.5 -19.1 -16.1 -9 -4.3 -15 -6.3 -39.7 -12.9 -12.1 -3.2 -26.7 -7.5 -32.5 -9.5 -40.6 -14 -58.9 -35.5 -59 -69.2 0 -21.6 6 -37.1 20.4 -52.1 14.9 -15.6 36.3 -25.9 65.1 -31.4 10.5 -2 15.2 -2.3 36.5 -2.3 30.3 0 44.3 2.2 62.9 9.6 31.4 12.5 49.7 37.2 52.7 71.2 l0.6 7.7 -33.9 0 -33.9 0 -0.2 -5.5 c-0.5 -12.6 -8.8 -24.8 -20.5 -30.4 -16.6 -7.9 -44.3 -8.1 -61.5 -0.5 -11.2 4.9 -18 12.8 -20.3 23.3 -4.3 20.2 14.1 33.8 58.6 43.2 53.4 11.4 75.7 23.5 87.2 47.4 4.5 9.5 6.3 18.7 6.3 32.8 0 14.7 -2 24.8 -6.9 35.2 -13.5 28.2 -41.3 46.3 -82.6 53.6 -9.2 1.6 -17.1 2.2 -33.5 2.4 -11.8 0.2 -23.3 0.1 -25.5 -0.1z"/>
  <path d="M1659.5 2133.4 c-24.3 -2.6 -40.3 -6.2 -54.2 -12.2 -31.4 -13.5 -47.5 -37.9 -50 -75.8 l-0.6 -9.4 34 0 34 0 -0.5 3 c-0.7 4.9 1.7 16.1 4.9 22.7 7.8 16.1 27.8 25.2 55.9 25.4 25.4 0.3 47.1 -9.7 55.1 -25.2 2.8 -5.5 3.7 -16.9 1.9 -22.5 -1.7 -5 -9.9 -13 -17.5 -17 -8.6 -4.5 -18.2 -7.8 -41.5 -14 -44.8 -12 -61.1 -19.3 -75.2 -33.5 -6.9 -7.1 -12 -15.6 -15 -25.2 -1.9 -6 -2.3 -9.4 -2.3 -20.7 0.1 -15.4 1.5 -22.4 6.9 -33.4 l3.4 -6.9 -2.1 -1.9 c-4.3 -3.7 -19.8 -13.7 -27.9 -18.2 -20.9 -11.4 -52 -21.1 -78.4 -24.5 -4.3 -0.5 38.9 -0.9 114.6 -1 79.6 -0.1 124.5 0.3 130 0.9 31.2 3.9 51.7 12.5 67.6 28.4 8.7 8.7 15.1 18.5 18.4 28.1 2.4 7.1 5 21 5 27.1 l0 4.4 -33.4 0 -33.4 0 -0.7 -6.4 c-1.3 -12.8 -9.2 -23.8 -21 -29.7 -19 -9.3 -52.8 -7.3 -68.6 4 -9.2 6.6 -13.1 13.6 -13.2 24.2 -0.1 8.2 3 14.1 10.7 19.9 10.7 8.1 24.9 13.2 52.6 19 19.3 4 40.1 10.7 51.7 16.5 22.8 11.4 34.9 28.8 37.3 53.2 3.7 38.9 -12.9 67.7 -49.5 86.1 -19.8 9.9 -41.8 14.3 -73.5 14.7 -11.8 0.2 -23.3 0.1 -25.5 -0.1z"/>
  <path d="M322.5 2122.8 c1.8 -6.8 50.5 -221.2 50.5 -222.1 0 -0.4 -21.2 -0.7 -47 -0.7 l-47.1 0 -6.6 -5.6 c-27.6 -23.5 -69.1 -39.8 -114.3 -45.1 -3.6 -0.5 80.1 -0.7 185.9 -0.5 105.9 0.1 192.6 0.4 192.7 0.5 0.2 0.2 -1.3 7.4 -8.8 40.5 l-2.3 10.2 -40.2 0 c-22.1 0 -40.4 0.3 -40.6 0.8 -0.5 0.7 -51.7 225.2 -51.7 226.5 0 0.4 -16.2 0.7 -35.9 0.7 l-35.9 0 1.3 -5.2z"/>
  <path d="M492.4 2126.3 c0.3 -1 6.8 -29.7 14.5 -63.8 12.4 -54.8 39.1 -172.9 45.6 -201.4 1.3 -5.7 3 -10.8 3.7 -11.2 1.7 -1.1 230.9 -1.1 232.7 0 1.1 0.7 0.3 5.3 -4 25.5 l-5.4 24.6 -82.4 0.2 -82.5 0.3 -6.8 29.5 c-3.7 16.2 -6.7 29.8 -6.8 30.3 0 0.4 34.3 0.7 76.1 0.7 72 0 76.1 0.1 75.7 1.8 -0.3 0.9 -2.7 11.5 -5.4 23.4 l-4.9 21.8 -76.2 0 c-71.7 0 -76.2 0.1 -76.7 1.8 -0.3 0.9 -3.7 15.7 -7.6 32.7 -3.9 17.1 -7.3 31.8 -7.6 32.8 -0.5 1.6 3.9 1.7 83 1.7 46 0 83.6 0.3 83.6 0.8 0 0.4 -2.6 11.8 -5.7 25.5 l-5.7 24.7 -118.9 0 c-112.7 0 -118.8 -0.1 -118.3 -1.7z"/>
  <path d="M754 2127.6 c0 -0.3 4.2 -19.1 9.4 -41.8 5.2 -22.7 13.5 -59.1 18.5 -80.8 28.2 -123.9 35.2 -154.5 35.7 -155 0.8 -0.7 72.1 -0.6 72.8 0.1 0.4 0.3 18 42.4 39.1 93.5 44.4 107 40.5 97.8 41 97.2 0.3 -0.3 29.5 -133.1 39.2 -178.5 2.2 -10.3 2.9 -12.2 4.7 -12.7 2.7 -0.7 60 -0.8 61.8 -0.1 1.6 0.6 2.7 -4.4 -28.7 132 -8.6 37.4 -19.2 83.8 -23.6 103 -4.4 19.3 -8.5 36.9 -9.1 39.3 l-1 4.2 -35.6 -0.2 -35.5 -0.3 -18.9 -44.5 c-10.4 -24.5 -28.4 -66.9 -40 -94.2 -11.6 -27.4 -21.5 -49.8 -21.9 -49.8 -0.5 0 -0.9 0.9 -0.9 2 0 1.2 -0.7 4.9 -1.5 8.3 -0.8 3.4 -9.4 42 -19 85.7 -9.6 43.7 -18.2 82.5 -19.1 86.3 l-1.6 6.7 -32.9 0 c-18.1 0 -32.9 -0.2 -32.9 -0.4z"/>
  <path d="M1047.4 2126.3 c0.3 -1 2.1 -8.8 4 -17.3 1.9 -8.5 11.8 -52.2 22.1 -97 10.2 -44.8 22.7 -99.6 27.7 -121.7 8.1 -35.7 9.4 -40.2 11.2 -40.7 2.7 -0.7 66 -0.8 67.8 -0.1 1.2 0.5 0.6 4.4 -3.3 21.3 -31.6 137.6 -58.9 256.5 -58.9 256.9 0 0.1 -16 0.3 -35.6 0.3 -33.4 0 -35.5 -0.1 -35 -1.7z"/>
  <path d="M1805.5 2126.8 c0.3 -0.7 8.1 -35.3 17.5 -76.8 38.8 -171.7 45.2 -199.5 45.7 -200 0.8 -0.8 232.3 -1.1 233.7 -0.3 0.9 0.6 0 6.5 -4.2 25.6 l-5.5 24.7 -82.3 0 -82.4 0 -0.5 2.3 c-0.3 1.2 -3.2 14.1 -6.5 28.7 -3.3 14.6 -6.3 27.3 -6.6 28.3 -0.5 1.6 3.6 1.7 76 1.7 l76.6 0 -0.9 2.3 c-0.4 1.2 -3 11.8 -5.6 23.5 l-4.8 21.2 -76.3 0 -76.2 0 -0.7 3.3 c-0.4 1.7 -3.8 16.7 -7.6 33.1 -3.8 16.5 -6.9 30.6 -6.9 31.3 0 1.1 15.4 1.3 83.4 1.3 l83.3 0 -2.7 11.8 c-1.5 6.4 -4.2 17.9 -6 25.5 l-3.2 13.7 -118.9 0 c-94.6 0 -118.7 -0.3 -118.4 -1.2z"/>
  <path d="M2067.4 2126.3 c0.3 -1 7.1 -30.6 15.1 -65.8 8.1 -35.2 17.5 -76.6 21 -92 3.5 -15.4 10.7 -46.9 16 -70 5.3 -23.1 9.9 -43.4 10.2 -45.2 0.3 -2.1 1.2 -3.3 2.7 -3.7 3.4 -0.9 92 -0.7 93.4 0.3 1.3 0.8 2.6 10.6 14.2 111.6 1.6 14.3 4.3 37.7 6 51.9 1.6 14.3 3 27.2 3 28.8 0 3.7 1.6 3.6 3.6 -0.4 1.5 -2.9 39.1 -68.1 93.5 -162.3 9.3 -16.1 17.5 -29.2 18.5 -29.6 2.2 -0.9 92.5 -1.2 94.7 -0.4 1.1 0.5 0.8 2.9 -1.9 14.3 -1.7 7.5 -8.4 36.4 -14.8 64.2 -35 153 -45.7 199.5 -46 199.7 -0.2 0.2 -15.1 0.2 -33.2 0.1 l-33 -0.3 7.4 -30 c4.1 -16.5 15.7 -63.3 25.8 -103.9 10.2 -40.6 18.3 -74.1 18.1 -74.3 -0.3 -0.2 -8.7 13.9 -18.8 31.4 -21.3 37 -66.7 115.7 -87.7 152.1 l-14.6 25.2 -27.6 0 -27.6 0 -3.8 -28.7 c-22.5 -170.7 -23.7 -179.7 -24.1 -180.2 -0.6 -0.6 -1.3 1.5 -2.4 7.9 -1.4 7.9 -40.1 197.1 -40.7 199.3 -0.5 1.6 -3 1.7 -34 1.7 -31.5 0 -33.5 -0.1 -33 -1.7z"/>
  <path d="M606 1813.8 c5.8 -5.5 18.7 -17.9 28.6 -27.4 l18.1 -17.4 29.4 0 29.4 0.1 15.3 24.2 c8.3 13.3 16.1 25.7 17.3 27.5 l2.1 3.2 -23.5 0 -23.5 0 -9.3 -14.4 c-5.2 -8 -9.7 -14.5 -10 -14.5 -0.3 -0.1 -8.2 6.4 -17.5 14.4 l-16.9 14.5 -25 0 -25 -0.1 10.5 -10.1z"/>
  <path d="M1895.1 1368.6 c0.2 -0.2 4.7 -1.6 9.9 -3.1 25.3 -7.2 74.5 -27 87.2 -35.1 81.2 -52 125.8 -131.3 125.8 -223.4 -0.1 -71.5 -25.5 -142.6 -71.9 -200.8 -36.1 -45.4 -84.7 -76.9 -130.1 -84.6 -11.6 -2 -48.6 -6.1 -67 -7.6 -22.1 -1.6 -68.5 -3.1 -83 -2.5 -39.2 1.5 -39.1 1.5 -33 0 6.5 -1.7 31.4 -4 60 -5.6 27 -1.5 97.3 -0.6 121.5 1.5 73.2 6.5 134 20.2 192 43 19.7 7.8 56.1 25.5 72 35.1 50.4 30.4 76.8 72.2 79.2 125.5 1.6 36.3 -10.5 81.6 -32.4 121.3 -3 5.4 -5.3 10.1 -5 10.3 0.7 0.7 2 -1.2 12.2 -18.1 62.2 -103.1 57.2 -193.9 -13.6 -250.5 -11.1 -8.9 -21.8 -15.7 -40.8 -25.9 -70.6 -37.9 -151.9 -60.4 -248.6 -68.6 -26.1 -2.2 -87.3 -3.1 -116 -1.6 -78.5 4 -152.5 15.2 -232.6 35.1 -11.2 2.7 -21.5 5.5 -22.9 6 l-2.5 1 2.4 -1.8 c66.1 -47 114.9 -109.8 145.4 -187.2 23.7 -60.1 36.7 -131.7 36.8 -202.5 0 -43.5 -3.6 -75.9 -12.8 -113.5 -18.3 -75.4 -60.4 -145.8 -113.3 -189.4 -5.2 -4.3 -9.7 -8.1 -10 -8.3 -0.6 -0.6 3.1 0.9 32.8 12.8 258.9 104.2 463.3 241.3 583.7 391.9 33.3 41.6 56.5 77.9 78 121.5 39.5 80.3 57 157.5 55.2 243.5 -0.7 31.4 -2.3 48.7 -7.2 78.5 -25.6 154.5 -110.7 269.3 -251.5 339.6 -26.8 13.4 -43.4 20.4 -76 32.1 -22.5 8.1 -37.6 12.6 -49.5 14.9 -11.6 2.2 -29.5 6.3 -55 12.5 -17.4 4.2 -20.3 4.8 -19.4 4z"/>
  <path d="M1238.5 875.4 c-55.5 -4.5 -110.2 -19.3 -159.9 -43.4 -46.8 -22.7 -93.6 -57.3 -127.9 -94.5 -66.5 -72.2 -106 -159.9 -115.9 -257.5 -1.7 -16.2 -1.6 -65.9 0 -82 3.9 -37.7 13.8 -80.9 25.6 -111.5 3.1 -7.8 3.5 -8.4 3 -4.5 -0.6 4.4 -0.4 4.8 7.6 15.4 6 7.9 9.8 14.3 14 23.6 4.6 10.1 17.2 30.9 22.2 36.5 0.5 0.5 2.7 -0.9 5.6 -3.6 2.6 -2.5 5.9 -5.3 7.4 -6.2 l2.7 -1.7 11 10.3 c6.1 5.8 14.1 14.5 18.1 20 4.2 5.7 8.1 9.9 9.3 10.2 23 5.4 25.2 5.7 35.8 5.1 7.8 -0.5 14.6 -0.2 26 1.3 8.5 1 20.6 2.2 26.9 2.6 l11.5 0.6 12.2 7.9 c11.6 7.6 12.7 8.1 25.5 11.3 l13.3 3.3 11.5 -3.2 c6.3 -1.8 11.5 -3.2 11.6 -3.1 0.5 0.7 6.6 22.5 6.6 23.7 0.1 0.8 -3.1 6.8 -7 13.3 l-7.2 11.8 0 13 0 12.9 8.5 11.7 c8 11 9.9 12.8 31.7 31.1 12.8 10.7 24.2 20 25.3 20.7 1.1 0.8 7.6 3.2 14.5 5.3 l12.5 4 10 9 10.1 9.1 3.8 12.3 c2.1 6.8 5.1 17.7 6.7 24.3 1.6 6.6 5.4 18.1 8.3 25.5 5.3 13.3 6.2 16.6 8.7 32.5 1.6 10.2 10.7 29.7 21.3 45.7 5.4 8.2 8.8 14.7 12.2 23.7 4.8 12.3 4.8 12.3 15.2 23.5 9.3 9.8 12 12 23.4 18.8 8.6 5.2 14.3 7.9 17.1 8.3 2.3 0.3 8.3 1 13.2 1.5 l9 0.9 7 -4.3 c11.3 -6.9 11.5 -7 11.5 -8.1 0 -0.6 -5.5 -3.6 -12.2 -6.6 l-12.3 -5.6 -2.5 -12.4 c-1.7 -8.1 -4.3 -16.7 -7.7 -24.9 -4.9 -11.9 -5.1 -13.1 -5.8 -24.7 l-0.7 -12.2 8.6 -9.3 c6.5 -7 10.3 -12.3 15.3 -21.3 3.7 -6.6 9.5 -15.5 13 -19.8 3.5 -4.2 7.2 -9.2 8.3 -11 1 -1.7 5.5 -14.2 10 -27.7 6.7 -20.1 9.2 -26.4 14.4 -35.5 l6.4 -11 12.8 -8.1 12.8 -8.2 3.4 -11.3 c3.3 -10.9 3.4 -12.1 3.6 -28.4 l0.1 -17 7.3 -22.8 c4 -12.5 7.2 -23.2 7 -23.6 -0.2 -0.5 -4.6 -4.5 -9.8 -8.9 -9 -7.5 -10.2 -8.2 -22.7 -12.7 l-13.2 -4.7 -12.8 1.6 -12.8 1.6 -15.5 -3.4 c-33.9 -7.5 -34.7 -7.7 -38.2 -10.9 -1.8 -1.7 -7.1 -6.5 -11.8 -10.7 l-8.5 -7.7 -12 -0.7 c-11 -0.6 -21.1 -2 -34 -4.7 -2.7 -0.6 -10.8 -3.4 -18 -6.1 l-13 -5.1 -27.5 1.7 c-15.1 0.9 -32.5 1.8 -38.6 2.1 l-11.2 0.4 -11.3 6.7 c-6.3 3.7 -16.6 10 -22.9 13.9 -11.7 7.3 -13.6 8 -25 9.1 -12.6 1.2 -11 2.3 -15.4 -10.3 l-4 -11.2 -9.6 -5.5 c-12.6 -7.3 -21 -16 -26.5 -27.4 -2.1 -4.5 -4.1 -8.2 -4.5 -8.2 -0.3 0 -5.4 4.5 -11.3 9.9 l-10.8 9.9 -12 2.2 c-6.6 1.3 -12.1 2.1 -12.3 1.9 -0.2 -0.2 -2 -5.6 -4 -11.9 l-3.6 -11.5 4.1 -12.3 4.1 -12.2 12.6 -8.5 c11.8 -8.1 13.4 -8.8 26.1 -12.5 7.5 -2.2 18.8 -4.9 25.1 -5.9 l11.5 -2 3 2.7 c1.7 1.5 5.6 5.1 8.7 8 3.1 2.9 6.1 5.2 6.7 5.2 0.5 0 4.3 -2.8 8.4 -6.2 l7.5 -6.2 1.2 -11.5 c0.6 -6.4 1.2 -12.2 1.3 -12.8 0.1 -0.7 6 -6.1 13.1 -12 12.3 -10.3 13.3 -11.4 20.5 -22.9 6.7 -10.7 8.9 -13.3 18.2 -21.5 5.9 -5.2 15.8 -14.2 22 -20 l11.4 -10.6 11.5 -3.8 c12.4 -4 40 -15.4 40 -16.4 0 -0.4 -2.2 -2.3 -4.9 -4.4 l-5 -3.6 4.2 -9.2 4.2 -9.1 10.5 0.6 c6.2 0.4 15.2 1.9 22 3.6 6.3 1.6 11.8 2.6 12.2 2.2 0.4 -0.4 2.5 -4.1 4.8 -8.2 l4.1 -7.5 -4.8 -11.8 -4.7 -11.8 -10.6 -9.3 -10.6 -9.3 -11.5 -1.1 c-11.1 -0.9 -11.8 -1.1 -22.8 -6.7 l-11.4 -5.7 -12.1 1.2 c-6.7 0.6 -12.8 1.3 -13.6 1.5 -0.9 0.3 -4.9 5.9 -8.9 12.4 -9.7 15.9 -22.3 31.4 -32 39.5 -4.3 3.6 -8.3 6.6 -8.7 6.6 -0.5 0 -4.9 -2.3 -9.9 -5.2 -6 -3.3 -13.2 -6.3 -21.4 -8.8 l-12.3 -3.7 8.2 -9.1 c7 -7.7 10.1 -10.2 21.4 -17 l13.1 -8 12.5 -1.7 12.5 -1.8 7.6 -7.9 c4.2 -4.4 12.8 -12.4 19 -17.8 l11.4 -9.8 2 4.7 c1 2.5 3.3 7.3 5 10.6 l3 6 13.3 4.3 13.2 4.3 11.3 -7.7 c6.1 -4.2 13.9 -10.2 17.2 -13.3 3.3 -3.1 7.7 -7.1 9.9 -8.9 2.1 -1.9 3.5 -3.7 3 -4.2 -4.2 -3.9 -26 -16.9 -30 -17.9 -2.7 -0.7 -7.9 -2.1 -11.6 -3.2 l-6.7 -2.1 3.2 -4.3 3.2 -4.4 16.1 -0.1 c19 0 49 2.6 63.7 5.6 1.9 0.4 2.7 1.2 2.7 2.6 0 1.1 0.4 3.7 1 5.7 0.5 2 1.2 8.8 1.6 15.1 l0.6 11.5 11.3 7.8 c6.2 4.2 11.7 7.7 12.2 7.7 0.4 0 6.3 -2.3 13.1 -5.1 l12.2 -5.2 9.1 -10.4 c5 -5.6 9.6 -10.3 10.4 -10.3 3.8 0 40.9 15.9 56.5 24.2 35.2 18.8 64.9 39.8 94.1 66.4 13.5 12.3 13.8 12.8 13.9 22.9 0.1 3.9 0.3 4.1 10.1 11 5.5 3.9 10.4 7.5 10.9 8 0.5 0.6 -4.5 9.8 -12.1 22.5 -7.2 11.8 -16.6 27.8 -21.1 35.4 l-8 13.9 0.1 12.6 c0.1 8 1.1 17.5 2.6 26.2 2.3 13.4 2.5 14 9.1 25.6 l6.8 11.9 11.6 8.6 c11.7 8.6 33.2 21.1 39.2 22.9 1.7 0.5 8.1 1.7 14.2 2.8 10.7 1.9 11.5 1.9 24.1 0.2 12.2 -1.6 13.4 -1.9 19.5 -5.9 l6.5 -4.1 2.2 9.2 c8.5 35 12.7 83.2 10.4 121 -4.9 81.2 -29.1 153.6 -73.6 220.2 -63.8 95.5 -163.8 162.5 -276 185 -31.5 6.3 -46.3 7.7 -82 8 -17.6 0.1 -34.2 0.1 -37 -0.1z"/>
  <path d="M1128.2 41.4 l-4.3 -8.6 3.5 -4.2 c3.7 -4.5 3.7 -4.5 23.1 -10.2 6.6 -1.9 12.9 -3.7 14 -4.1 1.1 -0.3 -1.4 2.1 -5.5 5.5 -16.6 13.3 -16.7 13.5 -21.2 21.9 -2.4 4.6 -4.5 8.3 -4.8 8.3 -0.3 0 -2.5 -3.9 -4.8 -8.6z"/>
 </g>
 <g fill="#ffba00">
  <path d="M1395 1751.9 c-42.2 -3.1 -90.4 -14.5 -131.5 -31.1 -11.4 -4.6 -46.9 -21.7 -46.3 -22.3 0.2 -0.3 5.3 0.4 11.4 1.5 20.6 3.5 32.5 4.5 57.9 4.4 51.6 -0.1 93.6 -9.7 135.7 -31.1 79 -40 126.6 -112.6 138.5 -211.3 2.4 -20 2.4 -61.6 0 -79 -9.8 -70.8 -41.6 -123.4 -102.2 -169 -27.6 -20.8 -48.4 -32.7 -113.5 -65.5 -62.3 -31.4 -79.6 -41.6 -98.9 -58.4 -13.7 -11.9 -24.3 -28.7 -27.7 -43.9 -2 -9.2 -1.5 -29.3 1.1 -41.7 9 -43.2 37.7 -77.3 84.5 -100.5 27.5 -13.7 54.5 -21.6 84.5 -24.6 20.1 -2.1 60.2 -2.1 81 0 87.3 8.6 166.3 40.7 234.7 95.5 15.6 12.4 42.1 38 55.6 53.6 82 95 119.5 220.2 103.1 344 -20.9 157.8 -125.3 291.7 -272.9 349.8 -42 16.6 -84.9 26.4 -130 29.7 -15.6 1.2 -48.4 1.1 -65 -0.1z"/>
  <path d="M1257.5 1675.3 c-9.6 -0.7 -28.9 -3.4 -41.5 -5.8 -26 -5.1 -66.6 -17.8 -73.7 -23.2 -1.8 -1.3 -9.8 -8.7 -17.7 -16.4 -122.2 -118.5 -164.9 -295.9 -109.9 -456.4 36.4 -105.9 109.7 -191.8 209.8 -245.5 l8 -4.3 -4.5 3.8 c-8.2 6.9 -21 20.8 -27.5 30 -17.9 24.9 -26.9 52.6 -26.8 82 0.1 11.6 0.5 15.6 2.6 23.6 5.4 20.7 15.4 37.6 32.1 54.4 23.2 23.4 47.1 38.9 117.6 76.5 42.7 22.7 61.8 33.8 82.6 47.5 60.8 40.3 91.9 80.6 103.6 134.5 2 9.4 2.2 13.2 2.2 37 0 24.8 -0.1 27.5 -2.8 42 -16.1 88.4 -49.9 148.7 -103.6 185 -35.9 24.2 -79.6 36.3 -129 35.8 -9.1 -0.1 -18.7 -0.3 -21.5 -0.5z"/>
  <path d="M1061.5 1625.6 c-109.1 -44.5 -199 -88.7 -283.5 -139.5 -153.5 -92.2 -269.3 -196 -342.6 -307.1 -52.2 -79.1 -81.6 -157.8 -92 -246 -2.2 -18.4 -3 -71.1 -1.5 -92.2 9.5 -129.7 60.5 -240 146.4 -316.7 34.7 -30.9 69 -53.8 114.2 -76.1 26.5 -13.1 42 -19.7 70.8 -30.1 29.9 -10.8 31.5 -11.3 71.2 -19.9 10.5 -2.3 26.2 -5.9 35 -8.1 8.8 -2.1 16.5 -3.9 17 -3.9 0.6 0 -8.2 3.1 -19.5 6.9 -38.4 12.8 -63.7 23.9 -80.1 34.8 -73.2 49.2 -116.2 122.6 -119.8 204.8 -2.3 54.6 8.9 106.4 33.9 156.6 16.9 33.8 36.1 60.2 62.6 85.9 29.7 28.9 62.7 48 96.9 56 17.5 4.1 66.7 9.1 109 11.1 22.5 1 71 0.7 84.3 -0.6 3 -0.3 1.6 0.2 -3.8 1.4 -20.4 4.6 -91.6 7.7 -136.8 6.1 -72.8 -2.6 -129.5 -11.4 -190.1 -29.5 -40.1 -12 -86.5 -32.3 -118.5 -51.9 -41.4 -25.3 -65.9 -58 -74.6 -99.4 -2.7 -12.7 -3.7 -37.1 -2.1 -51.2 3.5 -30.5 15.5 -66.6 31.7 -95.2 2.9 -5.3 5.4 -9.9 5.4 -10.3 0 -1.9 -2.7 1.9 -10.4 14.5 -23.8 38.9 -36.4 70 -43.2 107 -2.8 14.7 -2.5 47.1 0.4 60.6 9.5 44.1 34.4 77.1 77.9 103 56.9 34 130.6 59.4 207.3 71.3 40.3 6.3 65 8.2 115.2 8.8 75.8 1 133.4 -4 212.5 -18.3 30.5 -5.5 92.1 -19.5 101.9 -23 1 -0.4 -2.8 2.8 -8.6 7.1 -101.7 75.9 -159.3 190.3 -172.2 342 -1.5 18.3 -1.5 67.4 0 84 5.3 55.9 17.6 102.6 38.8 146.5 10.1 20.8 14.9 29.2 26.5 46.5 19.7 29.3 45.5 57.3 68.4 74.2 1.7 1.2 2.8 2.2 2.5 2.2 -0.3 0 -14 -5.6 -30.5 -12.3z"/>
 </g>
</svg>